<?xml version="1.0" encoding="UTF-8"?>
<svg id="Layer_2" data-name="Layer 2" xmlns="http://www.w3.org/2000/svg" viewBox="0 0 300.71 304.73">
  <defs>
    <style>
      .cls-1 {
        fill: #1d1d1b;
      }

      .cls-2 {
        fill: #fff;
      }

      .cls-3 {
        fill: #e30613;
      }

      .cls-4 {
        fill: #e30512;
      }
    </style>
  </defs>
  <g id="Layer_1-2" data-name="Layer 1">
    <g>
      <path class="cls-4" d="M151.06,72.21C151.06,32.33,118.73,0,78.85,0S6.64,32.33,6.64,72.21s32.33,72.21,72.21,72.21c7.87,0,15.44-1.28,22.53-3.6l38.63,24.73-19.29-34.52c18.36-13.09,30.35-34.55,30.35-58.82"/>
      <path class="cls-2" d="M53.88,41.62l5.04,23.72.2-.04,5.57-24.7,21.11-3.84-12.89,36.93,13.54,31.82-19.36,4.78-7.65-24.19-.2.04-5.31,25.6-20.6,3.74,12.08-37.94-10.8-31.16,19.26-4.76Z"/>
      <path class="cls-1" d="M87.45,87.94c-1.09-5.99-1.41-12.95-1.22-20.53.44-22.41,6.35-33.12,24.61-36.44,3.86-.7,9.33-.54,12.18.09l-.98,16.53c-1.92-.18-6.35-.31-10.81.5-4.97.9-5.79,3.88-6.51,16.07-.31,6.35.17,14.75,1.07,22.03,6.7-1.22,12.15-2.94,16.76-5.25l-.12,17.21c-2.54,1.61-8.61,3.98-13.58,4.88-15.22,2.77-19.43-4.23-21.4-15.08Z"/>
      <g>
        <path class="cls-3" d="M293.09,300.34l-.51,1.31c-.23.59-.52,1.03-.88,1.31-.36.28-.8.43-1.31.43-.42,0-.78-.04-1.08-.11v1.28c.44.1.89.15,1.34.15.84,0,1.54-.24,2.11-.71.57-.47,1.06-1.25,1.47-2.34l4.25-11.22h-1.74l-2,5.59c-.13.36-.29.85-.48,1.46-.19.61-.31,1.02-.37,1.24h-.07c-.1-.57-.38-1.46-.83-2.69l-2.13-5.61h-1.73l3.97,9.89ZM286.19,298.71c-.27-.31-.41-.74-.41-1.31v-5.69h2.85v-1.26h-2.85v-2.26h-.96l-.65,2.1-1.41.65v.77h1.39v5.74c0,2.03.96,3.04,2.89,3.04.32,0,.64-.03.96-.09.31-.06.55-.13.7-.19v-1.24c-.14.05-.36.1-.64.14-.28.04-.53.06-.74.06-.49,0-.86-.15-1.14-.46M279.43,288.56c.18.17.41.25.68.25.25,0,.47-.08.66-.25.19-.17.28-.43.28-.78s-.09-.62-.28-.78c-.19-.16-.41-.24-.66-.24-.27,0-.49.08-.68.24-.18.16-.27.42-.27.78s.09.61.27.78M280.9,290.45h-1.62v9.86h1.62v-9.86ZM276.16,286.34h-1.62v13.97h1.62v-13.97ZM269.95,288.56c.18.17.41.25.68.25.25,0,.47-.08.66-.25.19-.17.28-.43.28-.78s-.09-.62-.28-.78c-.19-.16-.41-.24-.66-.24-.27,0-.5.08-.68.24-.18.16-.27.42-.27.78s.09.61.27.78M271.42,290.45h-1.62v9.86h1.62v-9.86ZM264.9,292.56c.44.62.66,1.56.66,2.8s-.22,2.16-.65,2.82c-.43.65-1.09.97-1.98.97-1,0-1.72-.29-2.16-.87-.44-.58-.66-1.54-.66-2.89v-.07c0-1.34.22-2.29.65-2.86.43-.56,1.14-.84,2.14-.84.9,0,1.57.31,2.01.93M260.11,291.76h-.09c.06-.68.09-1.35.09-2.03v-3.39h-1.62v13.97h1.16c.04-.11.15-.53.33-1.25h.12c.33.47.75.83,1.27,1.07.52.24,1.11.36,1.78.36,1.28,0,2.27-.44,2.99-1.33.72-.89,1.08-2.15,1.08-3.77s-.35-2.85-1.06-3.75c-.71-.9-1.71-1.34-3.01-1.34-1.37,0-2.39.49-3.05,1.47M253.9,288.56c.18.17.41.25.68.25.25,0,.47-.08.66-.25.19-.17.28-.43.28-.78s-.09-.62-.28-.78c-.19-.16-.41-.24-.66-.24-.27,0-.49.08-.68.24-.18.16-.27.42-.27.78s.09.61.27.78M255.37,290.45h-1.62v9.86h1.62v-9.86ZM251.08,296.4c-.19-.33-.48-.63-.87-.89-.39-.26-1-.55-1.82-.85-1.1-.42-1.79-.75-2.09-.98-.3-.24-.45-.53-.45-.89s.17-.66.52-.88c.35-.21.86-.32,1.53-.32.8,0,1.7.21,2.7.63l.55-1.28c-.98-.44-2.02-.66-3.14-.66s-2.05.23-2.71.7c-.66.47-.99,1.1-.99,1.91,0,.45.09.84.26,1.16.18.32.45.6.83.86.38.26,1.03.56,1.96.92.91.35,1.54.65,1.9.92.36.27.54.6.54.99,0,.44-.19.8-.56,1.06-.37.26-.96.39-1.78.39-1.01,0-2.05-.26-3.13-.79v1.47c.77.41,1.8.62,3.1.62s2.21-.25,2.9-.76c.69-.51,1.03-1.22,1.03-2.14,0-.46-.09-.86-.28-1.18M241.89,300.31v-6.42c0-1.24-.29-2.15-.88-2.74-.59-.59-1.48-.88-2.69-.88-.67,0-1.27.13-1.82.4-.55.27-.98.64-1.28,1.13h-.09l-.24-1.35h-1.3v9.86h1.62v-5.11c0-1.26.23-2.17.69-2.73.46-.56,1.19-.84,2.2-.84.76,0,1.32.2,1.68.59.36.39.53.99.53,1.79v6.3h1.6ZM226.44,291.62c.95,0,1.67.31,2.17.94.49.62.74,1.56.74,2.8s-.25,2.18-.74,2.82c-.49.64-1.21.96-2.15.96s-1.67-.32-2.16-.96c-.49-.64-.73-1.59-.73-2.82,0-2.49.95-3.74,2.86-3.74M229.79,291.64c-.82-.91-1.92-1.37-3.31-1.37s-2.57.45-3.38,1.34c-.8.89-1.2,2.14-1.2,3.75,0,1.03.18,1.93.56,2.71.37.78.9,1.38,1.59,1.79.69.42,1.48.62,2.37.62,1.44,0,2.56-.45,3.38-1.36.81-.9,1.22-2.16,1.22-3.77s-.41-2.81-1.23-3.72M217.51,292.58c.46.64.7,1.56.7,2.76s-.23,2.13-.7,2.8c-.46.67-1.11,1.01-1.93,1.01-.99,0-1.71-.3-2.15-.89-.44-.59-.66-1.56-.66-2.89v-.31c.01-1.18.23-2.04.67-2.59.43-.55,1.14-.83,2.11-.83.85,0,1.51.32,1.97.96M218.81,299.13c.71-.9,1.07-2.16,1.07-3.77s-.35-2.87-1.06-3.76c-.71-.89-1.7-1.33-2.99-1.33-.66,0-1.24.12-1.74.36-.5.24-.95.63-1.33,1.17h-.07l-.21-1.35h-1.33v14.28h1.62v-4.05c0-.37-.02-.78-.07-1.25l-.04-.37h.11c.71.95,1.73,1.43,3.05,1.43s2.29-.45,3-1.36M208.47,296.4c-.18-.33-.47-.63-.87-.89-.39-.26-1-.55-1.82-.85-1.1-.42-1.79-.75-2.09-.98-.3-.24-.45-.53-.45-.89s.17-.66.52-.88c.35-.21.86-.32,1.53-.32.8,0,1.7.21,2.7.63l.55-1.28c-.98-.44-2.02-.66-3.14-.66s-2.05.23-2.71.7c-.66.47-.99,1.1-.99,1.91,0,.45.09.84.27,1.16.18.32.45.6.83.86.38.26,1.03.56,1.96.92.91.35,1.54.65,1.9.92.36.27.53.6.53.99,0,.44-.18.8-.56,1.06-.37.26-.96.39-1.78.39-1.01,0-2.05-.26-3.13-.79v1.47c.77.41,1.8.62,3.1.62s2.21-.25,2.9-.76c.69-.51,1.03-1.22,1.03-2.14,0-.46-.09-.86-.28-1.18M197.5,292.31c.41.48.62,1.18.64,2.1h-5.02c.08-.89.35-1.58.8-2.07.45-.5,1.06-.75,1.83-.75s1.34.24,1.75.72M197.85,300.34c.48-.1.99-.26,1.54-.49v-1.42c-.63.27-1.19.45-1.66.54-.47.09-.97.14-1.5.14-.99,0-1.75-.29-2.29-.87-.54-.58-.82-1.43-.85-2.55h6.75v-.98c0-1.36-.37-2.45-1.1-3.25-.74-.8-1.72-1.2-2.96-1.2-1.33,0-2.39.47-3.18,1.41-.79.94-1.18,2.19-1.18,3.77s.42,2.8,1.26,3.7c.84.89,2,1.34,3.48,1.34.65,0,1.22-.05,1.7-.14M187.46,290.77c-.52.34-.96.83-1.34,1.48h-.07l-.18-1.81h-1.33v9.86h1.62v-5.26c0-.62.13-1.18.38-1.68.25-.51.6-.9,1.05-1.19.45-.29.93-.43,1.45-.43.35,0,.7.04,1.07.13l.2-1.49c-.34-.07-.72-.11-1.16-.11-.6,0-1.17.17-1.68.5M172.82,300.34l-.51,1.31c-.23.59-.52,1.03-.88,1.31-.36.28-.8.43-1.31.43-.42,0-.78-.04-1.08-.11v1.28c.44.1.89.15,1.34.15.84,0,1.54-.24,2.11-.71.57-.47,1.06-1.25,1.47-2.34l4.25-11.22h-1.74l-2,5.59c-.13.36-.29.85-.48,1.46-.19.61-.31,1.02-.37,1.24h-.07c-.1-.57-.38-1.46-.83-2.69l-2.13-5.61h-1.73l3.97,9.89ZM167.34,300.31v-6.42c0-1.26-.28-2.18-.83-2.76-.55-.58-1.39-.86-2.5-.86-.69,0-1.32.14-1.86.43-.55.29-.98.69-1.3,1.22h-.09c-.47-1.1-1.47-1.65-3.02-1.65-.64,0-1.21.13-1.72.4-.51.27-.91.64-1.19,1.12h-.09l-.24-1.35h-1.3v9.86h1.62v-5.11c0-1.27.21-2.18.63-2.74.42-.56,1.09-.84,2-.84.69,0,1.2.19,1.53.58.33.39.49.97.49,1.75v6.35h1.61v-5.44c0-1.1.21-1.91.65-2.44.43-.53,1.11-.8,2.02-.8,1.33,0,2,.78,2,2.33v6.35h1.6ZM143.73,298.17c-.05.32-.1.66-.17,1.04s-.14.76-.22,1.15c-.08.39-.17.79-.25,1.18-.09.39-.17.78-.26,1.14h1.24c.15-.33.3-.69.45-1.05.15-.37.3-.74.44-1.11.14-.37.27-.74.39-1.11.12-.36.22-.71.3-1.03l-.14-.21h-1.78ZM139.14,290.77c-.51.34-.96.83-1.34,1.48h-.07l-.18-1.81h-1.33v9.86h1.62v-5.26c0-.62.12-1.18.38-1.68.25-.51.6-.9,1.05-1.19.45-.29.93-.43,1.45-.43.35,0,.7.04,1.07.13l.2-1.49c-.34-.07-.72-.11-1.16-.11-.6,0-1.16.17-1.68.5M131.39,292.31c.41.48.62,1.18.64,2.1h-5.02c.08-.89.35-1.58.8-2.07s1.06-.75,1.83-.75,1.34.24,1.75.72M131.74,300.34c.48-.1.99-.26,1.54-.49v-1.42c-.63.27-1.19.45-1.66.54-.47.09-.97.14-1.5.14-.99,0-1.75-.29-2.29-.87-.54-.58-.82-1.43-.85-2.55h6.75v-.98c0-1.36-.37-2.45-1.1-3.25-.74-.8-1.72-1.2-2.96-1.2-1.34,0-2.39.47-3.18,1.41-.78.94-1.18,2.19-1.18,3.77s.42,2.8,1.26,3.7c.84.89,2,1.34,3.48,1.34.65,0,1.22-.05,1.7-.14M122.8,300.31v-6.42c0-1.26-.28-2.18-.83-2.76-.55-.58-1.39-.86-2.5-.86-.69,0-1.32.14-1.86.43-.55.29-.98.69-1.3,1.22h-.09c-.47-1.1-1.47-1.65-3.02-1.65-.63,0-1.21.13-1.72.4-.51.27-.91.64-1.19,1.12h-.09l-.24-1.35h-1.3v9.86h1.62v-5.11c0-1.27.21-2.18.63-2.74.42-.56,1.09-.84,2-.84.69,0,1.21.19,1.53.58.33.39.49.97.49,1.75v6.35h1.61v-5.44c0-1.1.22-1.91.65-2.44.43-.53,1.1-.8,2.02-.8,1.33,0,2,.78,2,2.33v6.35h1.6ZM101.52,291.62c.95,0,1.68.31,2.17.94.49.62.74,1.56.74,2.8s-.25,2.18-.74,2.82c-.49.64-1.21.96-2.15.96s-1.67-.32-2.16-.96c-.49-.64-.73-1.59-.73-2.82,0-2.49.96-3.74,2.86-3.74M104.87,291.64c-.82-.91-1.92-1.37-3.31-1.37s-2.57.45-3.38,1.34c-.8.89-1.2,2.14-1.2,3.75,0,1.03.18,1.93.56,2.71.37.78.9,1.38,1.59,1.79.69.42,1.48.62,2.37.62,1.44,0,2.56-.45,3.38-1.36.81-.9,1.22-2.16,1.22-3.77s-.41-2.81-1.22-3.72M93.06,298.71c-.27-.31-.41-.74-.41-1.31v-5.69h2.85v-1.26h-2.85v-2.26h-.96l-.65,2.1-1.41.65v.77h1.39v5.74c0,2.03.96,3.04,2.89,3.04.32,0,.64-.03.96-.09.32-.06.55-.13.7-.19v-1.24c-.14.05-.36.1-.64.14-.28.04-.53.06-.74.06-.48,0-.86-.15-1.14-.46M88.23,296.4c-.19-.33-.48-.63-.87-.89-.39-.26-1-.55-1.82-.85-1.1-.42-1.79-.75-2.09-.98-.3-.24-.45-.53-.45-.89s.17-.66.52-.88c.35-.21.86-.32,1.53-.32.8,0,1.7.21,2.7.63l.55-1.28c-.98-.44-2.02-.66-3.14-.66s-2.05.23-2.71.7c-.66.47-.99,1.1-.99,1.91,0,.45.09.84.26,1.16.18.32.45.6.83.86.38.26,1.03.56,1.96.92.91.35,1.54.65,1.9.92.36.27.53.6.53.99,0,.44-.19.8-.56,1.06-.37.26-.96.39-1.78.39-1.01,0-2.05-.26-3.13-.79v1.47c.77.41,1.8.62,3.1.62s2.21-.25,2.9-.76c.69-.51,1.03-1.22,1.03-2.14,0-.46-.09-.86-.28-1.18M70.61,290.45v6.46c0,1.25.3,2.16.9,2.73.6.57,1.5.85,2.68.85.71,0,1.34-.13,1.88-.39.54-.26.96-.62,1.25-1.1h.08l.23,1.3h1.33v-9.86h-1.62v5.14c0,1.25-.23,2.16-.69,2.72-.46.56-1.2.84-2.21.84-.75,0-1.3-.19-1.66-.58-.36-.39-.53-.98-.53-1.77v-6.35h-1.63ZM68.39,299.96v-1.44c-.84.38-1.69.58-2.56.58-.93,0-1.63-.32-2.1-.95-.47-.63-.71-1.54-.71-2.73s.24-2.17.71-2.8c.47-.63,1.21-.94,2.2-.94.59,0,1.3.16,2.13.47l.49-1.35c-.31-.16-.69-.28-1.16-.38-.47-.1-.94-.15-1.42-.15-1.48,0-2.62.45-3.42,1.34-.8.89-1.2,2.17-1.2,3.82s.39,2.88,1.18,3.75c.79.87,1.89,1.31,3.31,1.31,1.01,0,1.86-.18,2.54-.53M50.17,300.34l-.51,1.31c-.23.59-.52,1.03-.88,1.31-.36.28-.8.43-1.31.43-.42,0-.78-.04-1.08-.11v1.28c.44.1.89.15,1.34.15.84,0,1.54-.24,2.11-.71.57-.47,1.06-1.25,1.47-2.34l4.25-11.22h-1.74l-2,5.59c-.13.36-.29.85-.48,1.46-.19.61-.31,1.02-.37,1.24h-.07c-.1-.57-.38-1.46-.83-2.69l-2.13-5.61h-1.73l3.97,9.89ZM38.43,300.31l4.38-11.49h.07c-.08,1.38-.12,2.52-.12,3.42v8.07h1.63v-13.13h-2.42l-4.12,10.76h-.07l-4.05-10.76h-2.44v13.13h1.53v-7.96c0-1.41-.05-2.59-.13-3.55h.07l4.33,11.51h1.36Z"/>
        <path class="cls-1" d="M275.34,175.94l-8.98,48.97h25.08l3.19-12.09h-12.54l1.26-7.05h10.91l2.08-11.2h-10.91l1.19-6.68h10.98l3.12-11.95h-25.38ZM251.82,225.8c3.63,0,8.23-.89,10.24-1.71l2.3-12.17c-3.56,1.04-7.64,1.56-12.54,1.56.3-5.27,1.04-11.28,2.08-15.73,2.08-8.53,3.04-10.54,6.68-10.54,3.26,0,6.38.67,7.72,1.04l2.82-11.58c-1.93-.82-5.79-1.63-8.61-1.63-13.36,0-18.92,6.83-22.11,22.63-1.11,5.34-1.78,10.31-1.78,14.69,0,7.94,2.08,13.43,13.21,13.43M227.19,175.94l-4.53,24.41h-.15l-5.04-25.08-13.28.89-8.98,48.75h12.61l4.3-23.52h.22l5.12,24.19,13.43-.89,8.98-48.75h-12.69ZM173.91,175.94l-8.98,48.97h25.08l3.19-12.09h-12.54l1.26-7.05h10.91l2.08-11.2h-10.91l1.19-6.68h10.98l3.12-11.95h-25.38ZM155,175.94l-8.98,48.97h13.5l8.98-48.97h-13.5ZM131.99,186.55c.89,0,1.85.07,2.52.15-.07,2.67-.3,4.97-.96,8.31-.82,4.01-1.93,4.38-4.67,4.45l-2.3.07,2.3-12.69c.52-.15,2.15-.3,3.12-.3M117.45,175.94l-8.98,48.97h13.5l2.82-15.73,1.78-.08,2.6,16.47,13.88-.89-3.93-18.1c4.82-2.23,6.97-6.9,8.09-14.25.52-3.34.52-3.93.52-6.16,0-6.97-3.41-10.83-13.21-10.83-4.38,0-13.06.22-17.07.59M87.18,175.94l-8.98,48.97h25.08l3.19-12.09h-12.54l1.26-7.05h10.91l2.08-11.2h-10.91l1.19-6.68h10.98l3.12-11.95h-25.38ZM64.77,186.55c.89,0,1.85.07,2.52.15-.07,2.82-.3,4.9-.96,8.31-1.04,5.19-2.23,5.86-4.97,6.01l-2.3.15,2.6-14.32c.52-.15,2.15-.3,3.12-.3M50.23,175.94l-8.98,48.97h13.5l2.23-12.54,6.6-.3c11.2-.52,14.76-8.24,16.32-18.92.45-3.34.59-4.75.59-6.97,0-6.97-3.34-10.83-12.46-10.83-4.38,0-13.58.22-17.81.59M9.79,176.16l3.64,23.45L0,224.91h15.06l7.05-17.44h.15l2.3,18.1,14.32-.89-5.49-24.26,13.87-24.49h-15.43l-7.12,16.77h-.15l-.52-17.44-14.25.89Z"/>
        <path class="cls-1" d="M285.41,231.22l-3.62,19.53h-.12l-4.04-20.06-10.62.71-7.18,39h10.09l3.44-18.82h.18l4.1,19.35,10.74-.71,7.18-39h-10.15ZM243.8,248.67c1.66-6.83,2.37-8.9,5.28-8.9.53,0,1.07,0,1.54.06-.24,4.33-1.13,9.44-2.02,13.12-1.6,6.83-2.38,8.84-5.28,8.84-.53,0-1.07,0-1.6-.06.24-4.33,1.19-9.38,2.08-13.06M233,248.61c-.89,4.27-1.66,8.25-1.66,11.75,0,6.35,2.43,10.74,10.68,10.74,10.62,0,14.9-5.46,17.45-18.1.89-4.27,1.6-8.25,1.6-11.75,0-6.35-2.43-10.74-10.68-10.74-10.62,0-14.84,5.46-17.39,18.1M221.78,231.22l-7.18,39.18h10.8l7.18-39.18h-10.8ZM203.98,239.7c.71,0,1.48.06,2.02.12-.06,2.26-.24,3.92-.77,6.65-.83,4.15-1.78,4.69-3.98,4.81l-1.84.12,2.08-11.46c.42-.12,1.72-.24,2.49-.24M192.34,231.22l-7.18,39.18h10.8l1.78-10.03,5.28-.24c8.96-.42,11.81-6.59,13.06-15.14.36-2.67.48-3.8.48-5.58,0-5.58-2.67-8.67-9.97-8.67-3.5,0-10.86.18-14.25.47M165.69,270.09l8.43-20.12h.12l-2.49,20.78,10.45-.65,3.98-38.88h-14.01l-7.42,21.13h-.12l-.53-21.13h-13.06l-9.97,39.18h10.39l4.75-20.48h.12l1.36,20.83,8.01-.65ZM125.74,255.91l4.81-14.84h.12l-.42,14.84h-4.51ZM125.92,231.39l-15.67,39h10.8l1.96-6.11h7l-.12,6.65,10.8-.71-1.19-39.35-13.59.53ZM104.73,231.22l-2.67,14.42h-5.16l2.67-14.42h-10.8l-7.18,39.18h10.8l2.73-14.96h5.16l-2.73,14.96h10.8l7.18-39.18h-10.8ZM70.07,271.1c2.91,0,6.59-.71,8.19-1.37l1.84-9.74c-2.85.83-6.11,1.25-10.03,1.25.24-4.22.83-9.02,1.66-12.58,1.66-6.83,2.43-8.43,5.34-8.43,2.61,0,5.11.53,6.17.83l2.26-9.26c-1.54-.65-4.63-1.31-6.89-1.31-10.68,0-15.14,5.46-17.69,18.1-.89,4.27-1.43,8.25-1.43,11.75,0,6.35,1.66,10.74,10.57,10.74"/>
      </g>
    </g>
  </g>
</svg>