<?xml version="1.0" encoding="UTF-8"?>
<svg id="Layer_2" data-name="Layer 2" xmlns="http://www.w3.org/2000/svg" viewBox="0 0 450.81 90.32">
  <defs>
    <style>
      .cls-1 {
        fill: #fff;
      }

      .cls-2 {
        fill: #f07d00;
      }

      .cls-3 {
        fill: #de0000;
      }
    </style>
  </defs>
  <g id="Layer_1-2" data-name="Layer 1">
    <g>
      <polygon points="248.21 21.31 190.3 88.35 448.84 88.35 448.84 21.31 248.21 21.31"/>
      <path class="cls-1" d="M249.11,23.29h197.75v63.09h-252.25l54.5-63.09ZM247.31,19.34l-61.31,70.98h264.81V19.34h-203.5Z"/>
      <polygon class="cls-3" points="1.97 1.97 1.97 69.01 225.95 69.01 283.86 1.97 1.97 1.97"/>
      <path class="cls-1" d="M3.94,3.94h275.61l-54.5,63.1H3.94V3.94ZM0,0v70.97h226.85L288.16,0H0Z"/>
      <g>
        <path class="cls-1" d="M424.89,40.86l.32,20.13h-.16l-4.57-20.13h-7.9v28.14h6.01l-.49-20.21h.16l4.65,20.21h7.82v-28.14h-5.83ZM382.89,40.86v21.33c0,2.14-1.14,2.43-1.73,2.43-1.02,0-1.73-.85-1.73-2.43v-21.33h-6v22.01c0,4.04,3.04,6.65,7.74,6.65s7.74-2.6,7.74-6.65v-22.01h-6.01ZM355.79,40.86v4.87h4.46v23.25h6.03v-23.27h3.83v-4.87h-14.32M321.47,48.21c0,4.4,2.68,6.61,5.14,8.59l.65.52c2.16,1.77,3.41,3.55,3.41,4.97v.11c0,2.02-.85,2.47-1.73,2.47s-1.8-.87-1.8-2.6v-2.11h-5.9v1.84c0,4.51,3.09,7.54,7.69,7.54,4.92,0,7.83-2.74,7.83-7.38v-.25c0-4.48-1.96-6.21-5.05-8.88l-1.37-1.17c-1.54-1.29-2.76-2.48-2.76-4.02v-.16c0-.85.28-2.37,1.75-2.37,1.36,0,1.67,1.75,1.67,2.66v1.89h5.72v-1.92c0-4.64-2.9-7.63-7.39-7.63-3.78,0-7.87,2.35-7.87,7.52M400,54.67v.43l3.39,13.86h6.15l-3.61-12.22v-.08l.14-.11c1.66-1.37,2.6-3.88,2.6-6.99v-.49c0-2.55-.79-4.68-2.29-6.16-1.39-1.37-3.25-2.1-5.47-2.08h-7.74v28.13h5.94v-23.5h.94c2.22,0,2.66,2.3,2.71,3.91v1.37c-.11,2.71-1.29,3.66-2.23,3.85h-.03l-.52.09ZM343.57,40.86h7.98l4.98,28.14h-6.2l-2.56-21.75h-.28l-2.66,21.77h-6.23l4.96-28.16Z"/>
        <path class="cls-2" d="M305.15,52.7s.05.54.06.9c.01.25,0,.65,0,.66l.06.05c3.17,2.6,6.54,6.15,7.11,8.75.16.72.13,1.37-.16,1.92-.33.65-.98,1.12-1.84,1.42-4.54,1.55-15.37-1.42-24.22-5.8-6.32-3.12-11.85-6.84-15.61-10.48-3.49-3.37-4.43-6.02-3.53-7.61.35-.6.93-1.04,1.72-1.36,2.88-1.12,8.42-.33,13.86,1.28-2.57,1.92-4.37,4.52-5.21,7.11h0v.03c-.25,2.38,3.19,5.49,6.65,7.22,0-.01.19.08.19.06,0-.01-.03-.24-.03-.25-.82-5.9,3.66-14.74,8.36-16.68.3-.13.57-.2.6-.2-.03,0-1.5-.11-1.72-.11-2.9-.05-5.44.72-7.55,1.98-9.08-3.12-15.73-3.48-18.51-2.55-1.11.36-1.85.93-2.22,1.67-.4.77-.4,1.75,0,2.9,1.26,3.78,6.79,8.95,13.79,13.54,1.01,5.34,5.81,10.83,12.66,11.56.01,0,.3.03.31.03h.11s-.36-.28-.38-.28c-2.13-1.64-4.02-4.32-4.68-6.67.14.06.63.32.73.36,11.07,5.47,22.68,8.26,27.82,6.54,1.15-.38,2-.93,2.38-1.7.36-.74.3-1.73-.06-2.84-.96-2.88-5.11-7.28-10.37-11.23-.03,0-.32-.21-.33-.22"/>
        <path class="cls-1" d="M128.46,36.12c.9.63,1.8.76,2.11.79-2.21.35-4.01-1.44-4.87-3.36-1.78-3.93-.93-8.51,1.58-12.31,1.61-.44,3.28-.61,4.93-.49-3.89,3.01-5.97,7.25-5.83,10.94.06,1.66.68,3.44,2.08,4.43"/>
        <path class="cls-1" d="M126,37.39c1.91.91,4.43,1.12,5.9-.55-.27.17-1.03.66-2.13.76-1.72.14-3.33-.82-4.44-2.07-2.49-2.73-3.63-7.33-2.56-12.13-1.39,1-2.55,2.21-3.47,3.55.52,4.51,2.8,8.59,6.7,10.44"/>
        <path class="cls-1" d="M129.81,33.64c.19-.25.74-.98,1.73-1.43,1.56-.71,3.41-.36,4.87.41,3.28,1.72,5.91,5.64,6.56,10.52.96-1.4,1.64-2.93,2.05-4.53-2.03-4.06-5.6-7.11-9.87-7.52-2.09-.19-4.54.47-5.34,2.55"/>
        <path class="cls-1" d="M131.69,29.43c-1.75,1.2-3.19,3.28-2.48,5.38h0c-.01-.32-.06-1.22.41-2.22.74-1.54,2.38-2.46,4.01-2.82,3.61-.79,8.15.52,11.78,3.85-.16-1.64-.62-3.26-1.34-4.78-4.16-1.78-8.83-1.83-12.38.6"/>
        <path class="cls-1" d="M129.5,36.12c-1.89-1.15-2.13-3.67-1.56-5.71,1.15-4.16,4.76-7.13,9.11-8.43,1.53.69,2.92,1.65,4.1,2.8-4.92-.2-9.24,1.72-11.49,4.64-1.03,1.31-1.7,3.07-1.26,4.73.27,1.07.88,1.73,1.1,1.97"/>
        <path class="cls-1" d="M193.46,39.92c-.65,3.12-3.39,5.25-6.2,5.25-2.51,0-4.29-2.41-3.75-5.09.63-3.12,3.09-5.46,6.04-5.46s4.52,2.32,3.91,5.3M194.56,30.47l-.24,1.28c-1.23-.91-2.74-1.42-4.43-1.4-4.08.05-7.93,3.11-9.59,7.04l2.92-16.05h-4.95l-13.09,17.37,3.15-17.37h-4.29l-23.65,27.42h5.95l16.27-18.85-3.45,18.85h3.92l14.19-18.84-3.42,18.84h4.38l1.23-6.78c.19,4.13,2.97,7.32,6.99,7.27,1.73-.01,3.42-.57,4.95-1.48l-.17.98h4.18l3.33-18.31h-4.18v.03Z"/>
        <path class="cls-1" d="M133.3,33.14c-1.07-.28-1.94-.1-2.26-.01,1.94-1.07,4.24-.02,5.74,1.48,3.01,3.08,3.78,7.69,2.73,12.11-1.37.98-2.9,1.7-4.48,2.15,2.63-4.15,3.14-8.84,1.73-12.27-.63-1.55-1.81-3-3.47-3.45"/>
        <path class="cls-1" d="M218.48,47.28l-5.16-8.58,5.8-7.11-.5,2.79h2.21l-2.35,12.9ZM225.7,30.47l.98-5.41h-4.18l-.98,5.41h-6.54l-4.24,5.22,1.93-10.63h-4.18l-.94,5.2h-.49c-1.01,0-2.32.39-3.53,1.11l.16-.91h-4.18l-3.33,18.3h4.18l1.91-10.5c.69-2.93,2.43-4,4.37-4h.22l-2.63,14.52h4.18l1.39-7.61,4.57,7.61h8.05l2.62-14.38h3.92l.71-3.91h-3.96Z"/>
        <path class="cls-1" d="M81.1,45.18c2.8,0,5.42-2.13,6.07-5.25.63-2.98-1.05-5.31-3.91-5.3-2.76,0-5.3,2.35-5.96,5.45-.71,3.31,1.67,5.09,3.8,5.09M65.93,34.62c-1.91,0-3.67,1.13-4.79,2.85h8.45c-.38-1.72-1.65-2.85-3.66-2.85M88.24,31.88l1.25-6.81v-.02h4.18l-4.3,23.7h-4.18l.2-1.11c-1.56,1-3.33,1.59-5.12,1.61-4.13.03-6.94-3.36-6.95-7.68h-13.37c.17,2.35,2.08,3.59,3.86,3.59,1.91,0,3.58-1,4.65-2.6h4.41c-1.75,3.88-5.5,6.68-9.62,6.68s-7.03-3.08-7.41-7.08l-1.2,6.59h-4.38l3.42-18.84-14.19,18.84h-3.92l3.45-18.85-16.27,18.85h-5.95l23.63-27.43h4.29l-3.16,17.37,13.09-17.37h4.95l-2.82,15.54c1.8-3.72,5.77-6.54,9.77-6.54,4.29,0,7.33,3.29,7.3,7.75,1.47-4.29,5.5-7.71,9.79-7.75,1.76-.02,3.34.55,4.59,1.54"/>
        <path class="cls-1" d="M135.72,38.34c-.16-2.11-1.25-4.4-3.42-4.82.28.14,1.09.55,1.72,1.47.98,1.42.94,3.3.44,4.87-1.12,3.52-4.54,6.79-9.22,8.28,1.54.69,3.17,1.11,4.81,1.23,3.64-2.7,6.02-6.73,5.68-11.02"/>
        <path class="cls-1" d="M133.01,34.64c1.4,1.73.76,4.18-.47,5.9-2.49,3.5-6.9,5.06-11.46,4.79-1.23-1.2-2.19-2.57-2.9-4.03,4.56,1.89,9.27,1.56,12.39-.41,1.42-.9,2.65-2.32,2.81-4.02.11-1.1-.24-1.94-.36-2.22"/>
        <path class="cls-1" d="M109.69,39.92c-.65,3.12-3.39,5.25-6.2,5.25-2.51,0-4.29-2.41-3.75-5.09.63-3.12,3.09-5.45,6.04-5.45s4.52,2.32,3.91,5.3M110.56,31.75c-1.23-.91-2.74-1.42-4.43-1.4-4.4.05-8.54,3.61-9.93,8.01l1.44-7.89h-4.18l-3.33,18.29h4.18l1.42-7.77c-.25,4.6,2.63,8.31,6.97,8.28,1.73-.02,3.42-.57,4.95-1.48l-.17.98h4.18l3.33-18.3h-4.18l-.24,1.29Z"/>
        <path class="cls-1" d="M132.85,35.94c-.05,2.22-2.11,3.69-4.16,4.21-4.16,1.07-8.54-.57-11.85-3.69-.16-1.64-.03-3.33.38-4.95,2.27,4.37,6.1,7.16,9.76,7.65,1.65.22,3.5-.06,4.73-1.28.78-.77,1.05-1.62,1.15-1.93h0Z"/>
      </g>
      <polygon class="cls-1" points="98.61 25.07 97.73 29.97 93.55 29.97 94.43 25.07 98.61 25.07"/>
    </g>
  </g>
</svg>